<mxfile host="app.diagrams.net" agent="Mozilla/5.0 (Windows NT 10.0; Win64; x64) AppleWebKit/537.36 (KHTML, like Gecko) Chrome/131.0.0.0 Safari/537.36" version="25.0.3">
  <diagram name="Page-1" id="b33g9e4ct7m0VpuvF4Kx">
    <mxGraphModel dx="1200" dy="508" grid="1" gridSize="10" guides="1" tooltips="1" connect="1" arrows="1" fold="1" page="1" pageScale="1" pageWidth="850" pageHeight="1100" math="0" shadow="0">
      <root>
        <mxCell id="0" />
        <mxCell id="1" parent="0" />
        <mxCell id="8Y4MFwl64yA6Q5XW1h5S-5" value="Trainer" style="swimlane;fontStyle=1;align=center;verticalAlign=top;childLayout=stackLayout;horizontal=1;startSize=26;horizontalStack=0;resizeParent=1;resizeParentMax=0;resizeLast=0;collapsible=1;marginBottom=0;whiteSpace=wrap;html=1;" vertex="1" parent="1">
          <mxGeometry x="610" y="430" width="180" height="220" as="geometry" />
        </mxCell>
        <mxCell id="8Y4MFwl64yA6Q5XW1h5S-6" value="&lt;div&gt;&amp;nbsp;- trainerID: String&lt;/div&gt;&lt;div&gt;&amp;nbsp;-&lt;span style=&quot;background-color: initial;&quot;&gt;&amp;nbsp; name: String&lt;/span&gt;&lt;/div&gt;&lt;div&gt;&amp;nbsp;- email: String&lt;/div&gt;&lt;div&gt;&amp;nbsp;- address: String&lt;/div&gt;&lt;div&gt;&amp;nbsp;- phoneNumber: int&lt;/div&gt;&lt;div&gt;&amp;nbsp;- dateOfBirth: Date&lt;/div&gt;" style="text;strokeColor=none;fillColor=none;align=left;verticalAlign=top;spacingLeft=4;spacingRight=4;overflow=hidden;rotatable=0;points=[[0,0.5],[1,0.5]];portConstraint=eastwest;whiteSpace=wrap;html=1;" vertex="1" parent="8Y4MFwl64yA6Q5XW1h5S-5">
          <mxGeometry y="26" width="180" height="104" as="geometry" />
        </mxCell>
        <mxCell id="8Y4MFwl64yA6Q5XW1h5S-7" value="" style="line;strokeWidth=1;fillColor=none;align=left;verticalAlign=middle;spacingTop=-1;spacingLeft=3;spacingRight=3;rotatable=0;labelPosition=right;points=[];portConstraint=eastwest;strokeColor=inherit;" vertex="1" parent="8Y4MFwl64yA6Q5XW1h5S-5">
          <mxGeometry y="130" width="180" height="8" as="geometry" />
        </mxCell>
        <mxCell id="8Y4MFwl64yA6Q5XW1h5S-8" value="&lt;div&gt;&amp;nbsp;+ assignTask()&lt;/div&gt;&lt;div&gt;&amp;nbsp;+ reviewLogSubmission()&lt;/div&gt;&lt;div&gt;&amp;nbsp;+ provideFeedback()&lt;/div&gt;&lt;div&gt;&amp;nbsp;+ trackTaskProgress()&lt;/div&gt;" style="text;strokeColor=none;fillColor=none;align=left;verticalAlign=top;spacingLeft=4;spacingRight=4;overflow=hidden;rotatable=0;points=[[0,0.5],[1,0.5]];portConstraint=eastwest;whiteSpace=wrap;html=1;" vertex="1" parent="8Y4MFwl64yA6Q5XW1h5S-5">
          <mxGeometry y="138" width="180" height="82" as="geometry" />
        </mxCell>
        <mxCell id="8Y4MFwl64yA6Q5XW1h5S-17" value="Trainee" style="swimlane;fontStyle=1;align=center;verticalAlign=top;childLayout=stackLayout;horizontal=1;startSize=26;horizontalStack=0;resizeParent=1;resizeParentMax=0;resizeLast=0;collapsible=1;marginBottom=0;whiteSpace=wrap;html=1;" vertex="1" parent="1">
          <mxGeometry x="30" y="439" width="200" height="240" as="geometry" />
        </mxCell>
        <mxCell id="8Y4MFwl64yA6Q5XW1h5S-18" value="&lt;div&gt;&amp;nbsp;- traineeID: String&lt;/div&gt;&lt;div&gt;&amp;nbsp;- name: String&lt;/div&gt;&lt;div&gt;&amp;nbsp;- email: String&lt;/div&gt;&lt;div&gt;&amp;nbsp;- address: String&lt;/div&gt;&lt;div&gt;&amp;nbsp;- phoneNumber: int&lt;/div&gt;&lt;div&gt;&amp;nbsp;- dateOfBirth: Date&lt;/div&gt;" style="text;strokeColor=none;fillColor=none;align=left;verticalAlign=top;spacingLeft=4;spacingRight=4;overflow=hidden;rotatable=0;points=[[0,0.5],[1,0.5]];portConstraint=eastwest;whiteSpace=wrap;html=1;" vertex="1" parent="8Y4MFwl64yA6Q5XW1h5S-17">
          <mxGeometry y="26" width="200" height="104" as="geometry" />
        </mxCell>
        <mxCell id="8Y4MFwl64yA6Q5XW1h5S-19" value="" style="line;strokeWidth=1;fillColor=none;align=left;verticalAlign=middle;spacingTop=-1;spacingLeft=3;spacingRight=3;rotatable=0;labelPosition=right;points=[];portConstraint=eastwest;strokeColor=inherit;" vertex="1" parent="8Y4MFwl64yA6Q5XW1h5S-17">
          <mxGeometry y="130" width="200" height="8" as="geometry" />
        </mxCell>
        <mxCell id="8Y4MFwl64yA6Q5XW1h5S-20" value="&lt;div&gt;&amp;nbsp;+ enrollInCourse()&lt;/div&gt;&lt;div&gt;&amp;nbsp;+ viewTask()&lt;/div&gt;&lt;div&gt;&amp;nbsp;&lt;span style=&quot;background-color: initial;&quot;&gt;+ trackTaskProgress()&lt;/span&gt;&lt;/div&gt;&lt;div&gt;&amp;nbsp;+ submitTrainingLog()&lt;/div&gt;&lt;div&gt;&amp;nbsp;+ uploadMedicalDocument()&lt;/div&gt;&lt;div&gt;&amp;nbsp;+ viewProgress()&lt;/div&gt;" style="text;strokeColor=none;fillColor=none;align=left;verticalAlign=top;spacingLeft=4;spacingRight=4;overflow=hidden;rotatable=0;points=[[0,0.5],[1,0.5]];portConstraint=eastwest;whiteSpace=wrap;html=1;" vertex="1" parent="8Y4MFwl64yA6Q5XW1h5S-17">
          <mxGeometry y="138" width="200" height="102" as="geometry" />
        </mxCell>
        <mxCell id="8Y4MFwl64yA6Q5XW1h5S-21" value="Administrator" style="swimlane;fontStyle=1;align=center;verticalAlign=top;childLayout=stackLayout;horizontal=1;startSize=26;horizontalStack=0;resizeParent=1;resizeParentMax=0;resizeLast=0;collapsible=1;marginBottom=0;whiteSpace=wrap;html=1;" vertex="1" parent="1">
          <mxGeometry x="220" y="150" width="220" height="190" as="geometry" />
        </mxCell>
        <mxCell id="8Y4MFwl64yA6Q5XW1h5S-22" value="&lt;div&gt;- adminID: String&lt;/div&gt;&lt;div&gt;- name: String&lt;/div&gt;&lt;div&gt;- email: String&lt;/div&gt;&lt;div&gt;&amp;nbsp; &amp;nbsp;&amp;nbsp;&lt;/div&gt;" style="text;strokeColor=none;fillColor=none;align=left;verticalAlign=top;spacingLeft=4;spacingRight=4;overflow=hidden;rotatable=0;points=[[0,0.5],[1,0.5]];portConstraint=eastwest;whiteSpace=wrap;html=1;" vertex="1" parent="8Y4MFwl64yA6Q5XW1h5S-21">
          <mxGeometry y="26" width="220" height="64" as="geometry" />
        </mxCell>
        <mxCell id="8Y4MFwl64yA6Q5XW1h5S-23" value="" style="line;strokeWidth=1;fillColor=none;align=left;verticalAlign=middle;spacingTop=-1;spacingLeft=3;spacingRight=3;rotatable=0;labelPosition=right;points=[];portConstraint=eastwest;strokeColor=inherit;" vertex="1" parent="8Y4MFwl64yA6Q5XW1h5S-21">
          <mxGeometry y="90" width="220" height="8" as="geometry" />
        </mxCell>
        <mxCell id="8Y4MFwl64yA6Q5XW1h5S-24" value="&lt;div&gt;&amp;nbsp;+ manageTrainees()&lt;/div&gt;&lt;div&gt;&amp;nbsp;+ manageTrainers()&lt;/div&gt;&lt;div&gt;&amp;nbsp;+ generateReport()&lt;/div&gt;&lt;div&gt;&amp;nbsp;+ scheduleCalendarEvent()&lt;/div&gt;&lt;div&gt;&amp;nbsp;+&amp;nbsp;&lt;span style=&quot;background-color: initial;&quot;&gt;approveMedicalDocument()&lt;/span&gt;&lt;/div&gt;" style="text;strokeColor=none;fillColor=none;align=left;verticalAlign=top;spacingLeft=4;spacingRight=4;overflow=hidden;rotatable=0;points=[[0,0.5],[1,0.5]];portConstraint=eastwest;whiteSpace=wrap;html=1;" vertex="1" parent="8Y4MFwl64yA6Q5XW1h5S-21">
          <mxGeometry y="98" width="220" height="92" as="geometry" />
        </mxCell>
        <mxCell id="8Y4MFwl64yA6Q5XW1h5S-55" value="" style="endArrow=none;html=1;rounded=0;exitX=0.473;exitY=-0.002;exitDx=0;exitDy=0;exitPerimeter=0;" edge="1" parent="1">
          <mxGeometry width="50" height="50" relative="1" as="geometry">
            <mxPoint x="119.32999999999993" y="829.7439999999999" as="sourcePoint" />
            <mxPoint x="120" y="680" as="targetPoint" />
            <Array as="points" />
          </mxGeometry>
        </mxCell>
        <mxCell id="8Y4MFwl64yA6Q5XW1h5S-56" value="Submit" style="text;html=1;align=center;verticalAlign=middle;resizable=0;points=[];autosize=1;strokeColor=none;fillColor=none;" vertex="1" parent="1">
          <mxGeometry x="70" y="730" width="60" height="30" as="geometry" />
        </mxCell>
        <mxCell id="8Y4MFwl64yA6Q5XW1h5S-57" value="" style="endArrow=none;html=1;rounded=0;exitX=0;exitY=0.394;exitDx=0;exitDy=0;exitPerimeter=0;entryX=0.791;entryY=1.027;entryDx=0;entryDy=0;entryPerimeter=0;" edge="1" parent="1" target="8Y4MFwl64yA6Q5XW1h5S-20">
          <mxGeometry width="50" height="50" relative="1" as="geometry">
            <mxPoint x="300" y="779.9759999999999" as="sourcePoint" />
            <mxPoint x="230" y="590" as="targetPoint" />
            <Array as="points">
              <mxPoint x="188" y="780" />
            </Array>
          </mxGeometry>
        </mxCell>
        <mxCell id="8Y4MFwl64yA6Q5XW1h5S-58" value="Submit" style="text;html=1;align=center;verticalAlign=middle;resizable=0;points=[];autosize=1;strokeColor=none;fillColor=none;" vertex="1" parent="1">
          <mxGeometry x="195" y="780" width="60" height="30" as="geometry" />
        </mxCell>
        <mxCell id="8Y4MFwl64yA6Q5XW1h5S-59" value="" style="endArrow=none;html=1;rounded=0;entryX=-0.005;entryY=0.154;entryDx=0;entryDy=0;entryPerimeter=0;exitX=0.5;exitY=0;exitDx=0;exitDy=0;" edge="1" parent="1" source="8Y4MFwl64yA6Q5XW1h5S-17" target="8Y4MFwl64yA6Q5XW1h5S-24">
          <mxGeometry width="50" height="50" relative="1" as="geometry">
            <mxPoint x="690" y="410" as="sourcePoint" />
            <mxPoint x="740" y="360" as="targetPoint" />
            <Array as="points">
              <mxPoint x="130" y="262" />
            </Array>
          </mxGeometry>
        </mxCell>
        <mxCell id="8Y4MFwl64yA6Q5XW1h5S-60" value="Manage" style="text;html=1;align=center;verticalAlign=middle;resizable=0;points=[];autosize=1;strokeColor=none;fillColor=none;" vertex="1" parent="1">
          <mxGeometry x="65" y="340" width="70" height="30" as="geometry" />
        </mxCell>
        <mxCell id="8Y4MFwl64yA6Q5XW1h5S-61" value="" style="endArrow=none;html=1;rounded=0;entryX=0.727;entryY=1.018;entryDx=0;entryDy=0;entryPerimeter=0;exitX=0.632;exitY=0.002;exitDx=0;exitDy=0;exitPerimeter=0;" edge="1" parent="1" source="8Y4MFwl64yA6Q5XW1h5S-5" target="8Y4MFwl64yA6Q5XW1h5S-24">
          <mxGeometry width="50" height="50" relative="1" as="geometry">
            <mxPoint x="690" y="440" as="sourcePoint" />
            <mxPoint x="740" y="390" as="targetPoint" />
            <Array as="points">
              <mxPoint x="724" y="390" />
              <mxPoint x="380" y="390" />
            </Array>
          </mxGeometry>
        </mxCell>
        <mxCell id="8Y4MFwl64yA6Q5XW1h5S-62" value="&lt;span style=&quot;color: rgb(0, 0, 0); font-family: Helvetica; font-size: 12px; font-style: normal; font-variant-ligatures: normal; font-variant-caps: normal; font-weight: 400; letter-spacing: normal; orphans: 2; text-align: center; text-indent: 0px; text-transform: none; widows: 2; word-spacing: 0px; -webkit-text-stroke-width: 0px; white-space: nowrap; background-color: rgb(251, 251, 251); text-decoration-thickness: initial; text-decoration-style: initial; text-decoration-color: initial; display: inline !important; float: none;&quot;&gt;Manage&lt;/span&gt;" style="text;whiteSpace=wrap;html=1;" vertex="1" parent="1">
          <mxGeometry x="480" y="360" width="80" height="40" as="geometry" />
        </mxCell>
        <mxCell id="8Y4MFwl64yA6Q5XW1h5S-64" value="" style="endArrow=none;html=1;rounded=0;entryX=0.981;entryY=0.702;entryDx=0;entryDy=0;entryPerimeter=0;exitX=-0.01;exitY=0.919;exitDx=0;exitDy=0;exitPerimeter=0;" edge="1" parent="1">
          <mxGeometry width="50" height="50" relative="1" as="geometry">
            <mxPoint x="611.4300000000001" y="550.626" as="sourcePoint" />
            <mxPoint x="470" y="549.9979999999998" as="targetPoint" />
          </mxGeometry>
        </mxCell>
        <mxCell id="8Y4MFwl64yA6Q5XW1h5S-65" value="" style="endArrow=none;html=1;rounded=0;entryX=1.013;entryY=0.748;entryDx=0;entryDy=0;entryPerimeter=0;exitX=0.136;exitY=0.001;exitDx=0;exitDy=0;exitPerimeter=0;" edge="1" parent="1" target="8Y4MFwl64yA6Q5XW1h5S-20">
          <mxGeometry width="50" height="50" relative="1" as="geometry">
            <mxPoint x="589" y="750.25" as="sourcePoint" />
            <mxPoint x="650" y="720" as="targetPoint" />
            <Array as="points">
              <mxPoint x="590" y="653" />
            </Array>
          </mxGeometry>
        </mxCell>
        <mxCell id="8Y4MFwl64yA6Q5XW1h5S-66" value="" style="endArrow=none;html=1;rounded=0;entryX=0.618;entryY=1.001;entryDx=0;entryDy=0;entryPerimeter=0;exitX=0.665;exitY=-0.004;exitDx=0;exitDy=0;exitPerimeter=0;" edge="1" parent="1" target="8Y4MFwl64yA6Q5XW1h5S-8">
          <mxGeometry width="50" height="50" relative="1" as="geometry">
            <mxPoint x="721.2499999999998" y="749" as="sourcePoint" />
            <mxPoint x="650" y="720" as="targetPoint" />
          </mxGeometry>
        </mxCell>
        <mxCell id="8Y4MFwl64yA6Q5XW1h5S-67" value="" style="endArrow=none;html=1;rounded=0;entryX=0.75;entryY=0;entryDx=0;entryDy=0;" edge="1" parent="1" target="8Y4MFwl64yA6Q5XW1h5S-21">
          <mxGeometry width="50" height="50" relative="1" as="geometry">
            <mxPoint x="529" y="120" as="sourcePoint" />
            <mxPoint x="510" y="350" as="targetPoint" />
            <Array as="points">
              <mxPoint x="385" y="120" />
            </Array>
          </mxGeometry>
        </mxCell>
        <mxCell id="8Y4MFwl64yA6Q5XW1h5S-69" value="" style="endArrow=none;html=1;rounded=0;entryX=1.018;entryY=0.274;entryDx=0;entryDy=0;entryPerimeter=0;exitX=0;exitY=0.425;exitDx=0;exitDy=0;exitPerimeter=0;" edge="1" parent="1" source="8Y4MFwl64yA6Q5XW1h5S-81" target="8Y4MFwl64yA6Q5XW1h5S-24">
          <mxGeometry width="50" height="50" relative="1" as="geometry">
            <mxPoint x="594.1599999999999" y="273.664" as="sourcePoint" />
            <mxPoint x="530" y="240" as="targetPoint" />
          </mxGeometry>
        </mxCell>
        <mxCell id="8Y4MFwl64yA6Q5XW1h5S-70" value="generate" style="text;html=1;align=center;verticalAlign=middle;resizable=0;points=[];autosize=1;strokeColor=none;fillColor=none;" vertex="1" parent="1">
          <mxGeometry x="415" y="88" width="70" height="30" as="geometry" />
        </mxCell>
        <mxCell id="8Y4MFwl64yA6Q5XW1h5S-71" value="schedule" style="text;html=1;align=center;verticalAlign=middle;resizable=0;points=[];autosize=1;strokeColor=none;fillColor=none;" vertex="1" parent="1">
          <mxGeometry x="485" y="250" width="70" height="30" as="geometry" />
        </mxCell>
        <mxCell id="8Y4MFwl64yA6Q5XW1h5S-73" value="give" style="text;html=1;align=center;verticalAlign=middle;resizable=0;points=[];autosize=1;strokeColor=none;fillColor=none;" vertex="1" parent="1">
          <mxGeometry x="515" y="528" width="50" height="30" as="geometry" />
        </mxCell>
        <mxCell id="8Y4MFwl64yA6Q5XW1h5S-74" value="view/track" style="text;html=1;align=center;verticalAlign=middle;resizable=0;points=[];autosize=1;strokeColor=none;fillColor=none;" vertex="1" parent="1">
          <mxGeometry x="350" y="649" width="80" height="30" as="geometry" />
        </mxCell>
        <mxCell id="8Y4MFwl64yA6Q5XW1h5S-75" value="assign" style="text;html=1;align=center;verticalAlign=middle;resizable=0;points=[];autosize=1;strokeColor=none;fillColor=none;" vertex="1" parent="1">
          <mxGeometry x="710" y="688" width="60" height="30" as="geometry" />
        </mxCell>
        <mxCell id="8Y4MFwl64yA6Q5XW1h5S-76" value="Report" style="swimlane;fontStyle=1;align=center;verticalAlign=top;childLayout=stackLayout;horizontal=1;startSize=26;horizontalStack=0;resizeParent=1;resizeParentMax=0;resizeLast=0;collapsible=1;marginBottom=0;whiteSpace=wrap;html=1;" vertex="1" parent="1">
          <mxGeometry x="530" y="50" width="160" height="130" as="geometry" />
        </mxCell>
        <mxCell id="8Y4MFwl64yA6Q5XW1h5S-77" value="&lt;div&gt;&amp;nbsp;- reportID: String&lt;/div&gt;&lt;div&gt;&amp;nbsp;- traineeID: String&lt;/div&gt;&lt;div&gt;&amp;nbsp;- content: String&lt;/div&gt;" style="text;strokeColor=none;fillColor=none;align=left;verticalAlign=top;spacingLeft=4;spacingRight=4;overflow=hidden;rotatable=0;points=[[0,0.5],[1,0.5]];portConstraint=eastwest;whiteSpace=wrap;html=1;" vertex="1" parent="8Y4MFwl64yA6Q5XW1h5S-76">
          <mxGeometry y="26" width="160" height="64" as="geometry" />
        </mxCell>
        <mxCell id="8Y4MFwl64yA6Q5XW1h5S-78" value="" style="line;strokeWidth=1;fillColor=none;align=left;verticalAlign=middle;spacingTop=-1;spacingLeft=3;spacingRight=3;rotatable=0;labelPosition=right;points=[];portConstraint=eastwest;strokeColor=inherit;" vertex="1" parent="8Y4MFwl64yA6Q5XW1h5S-76">
          <mxGeometry y="90" width="160" height="8" as="geometry" />
        </mxCell>
        <mxCell id="8Y4MFwl64yA6Q5XW1h5S-79" value="&lt;div&gt;&amp;nbsp;&lt;span style=&quot;background-color: initial;&quot;&gt;+ generateReport()&lt;/span&gt;&lt;/div&gt;" style="text;strokeColor=none;fillColor=none;align=left;verticalAlign=top;spacingLeft=4;spacingRight=4;overflow=hidden;rotatable=0;points=[[0,0.5],[1,0.5]];portConstraint=eastwest;whiteSpace=wrap;html=1;" vertex="1" parent="8Y4MFwl64yA6Q5XW1h5S-76">
          <mxGeometry y="98" width="160" height="32" as="geometry" />
        </mxCell>
        <mxCell id="8Y4MFwl64yA6Q5XW1h5S-80" value="Calendar Event" style="swimlane;fontStyle=1;align=center;verticalAlign=top;childLayout=stackLayout;horizontal=1;startSize=26;horizontalStack=0;resizeParent=1;resizeParentMax=0;resizeLast=0;collapsible=1;marginBottom=0;whiteSpace=wrap;html=1;" vertex="1" parent="1">
          <mxGeometry x="590" y="220" width="190" height="130" as="geometry" />
        </mxCell>
        <mxCell id="8Y4MFwl64yA6Q5XW1h5S-81" value="&lt;div&gt;&amp;nbsp;- eventID: String&lt;/div&gt;&lt;div&gt;&amp;nbsp;- description: String&lt;/div&gt;&lt;div&gt;&amp;nbsp;- date: Date&lt;/div&gt;&lt;div&gt;&lt;br&gt;&lt;/div&gt;" style="text;strokeColor=none;fillColor=none;align=left;verticalAlign=top;spacingLeft=4;spacingRight=4;overflow=hidden;rotatable=0;points=[[0,0.5],[1,0.5]];portConstraint=eastwest;whiteSpace=wrap;html=1;" vertex="1" parent="8Y4MFwl64yA6Q5XW1h5S-80">
          <mxGeometry y="26" width="190" height="64" as="geometry" />
        </mxCell>
        <mxCell id="8Y4MFwl64yA6Q5XW1h5S-82" value="" style="line;strokeWidth=1;fillColor=none;align=left;verticalAlign=middle;spacingTop=-1;spacingLeft=3;spacingRight=3;rotatable=0;labelPosition=right;points=[];portConstraint=eastwest;strokeColor=inherit;" vertex="1" parent="8Y4MFwl64yA6Q5XW1h5S-80">
          <mxGeometry y="90" width="190" height="8" as="geometry" />
        </mxCell>
        <mxCell id="8Y4MFwl64yA6Q5XW1h5S-83" value="&lt;div&gt;&amp;nbsp;&lt;span style=&quot;background-color: initial;&quot;&gt;+ sheduleCalendarEvent()&lt;/span&gt;&lt;/div&gt;" style="text;strokeColor=none;fillColor=none;align=left;verticalAlign=top;spacingLeft=4;spacingRight=4;overflow=hidden;rotatable=0;points=[[0,0.5],[1,0.5]];portConstraint=eastwest;whiteSpace=wrap;html=1;" vertex="1" parent="8Y4MFwl64yA6Q5XW1h5S-80">
          <mxGeometry y="98" width="190" height="32" as="geometry" />
        </mxCell>
        <mxCell id="8Y4MFwl64yA6Q5XW1h5S-84" value="Feedback" style="swimlane;fontStyle=1;align=center;verticalAlign=top;childLayout=stackLayout;horizontal=1;startSize=26;horizontalStack=0;resizeParent=1;resizeParentMax=0;resizeLast=0;collapsible=1;marginBottom=0;whiteSpace=wrap;html=1;" vertex="1" parent="1">
          <mxGeometry x="300" y="473" width="170" height="140" as="geometry" />
        </mxCell>
        <mxCell id="8Y4MFwl64yA6Q5XW1h5S-85" value="- feedbackID: String&lt;br&gt;- trainerID: String&lt;br&gt;- traineeID: String&lt;br&gt;- content: String" style="text;strokeColor=none;fillColor=none;align=left;verticalAlign=top;spacingLeft=4;spacingRight=4;overflow=hidden;rotatable=0;points=[[0,0.5],[1,0.5]];portConstraint=eastwest;whiteSpace=wrap;html=1;" vertex="1" parent="8Y4MFwl64yA6Q5XW1h5S-84">
          <mxGeometry y="26" width="170" height="74" as="geometry" />
        </mxCell>
        <mxCell id="8Y4MFwl64yA6Q5XW1h5S-86" value="" style="line;strokeWidth=1;fillColor=none;align=left;verticalAlign=middle;spacingTop=-1;spacingLeft=3;spacingRight=3;rotatable=0;labelPosition=right;points=[];portConstraint=eastwest;strokeColor=inherit;" vertex="1" parent="8Y4MFwl64yA6Q5XW1h5S-84">
          <mxGeometry y="100" width="170" height="8" as="geometry" />
        </mxCell>
        <mxCell id="8Y4MFwl64yA6Q5XW1h5S-87" value="&lt;div&gt;&amp;nbsp;&lt;span style=&quot;background-color: initial;&quot;&gt;+ generateFeedback()&lt;/span&gt;&lt;/div&gt;" style="text;strokeColor=none;fillColor=none;align=left;verticalAlign=top;spacingLeft=4;spacingRight=4;overflow=hidden;rotatable=0;points=[[0,0.5],[1,0.5]];portConstraint=eastwest;whiteSpace=wrap;html=1;" vertex="1" parent="8Y4MFwl64yA6Q5XW1h5S-84">
          <mxGeometry y="108" width="170" height="32" as="geometry" />
        </mxCell>
        <mxCell id="8Y4MFwl64yA6Q5XW1h5S-88" value="Medical Document" style="swimlane;fontStyle=1;align=center;verticalAlign=top;childLayout=stackLayout;horizontal=1;startSize=26;horizontalStack=0;resizeParent=1;resizeParentMax=0;resizeLast=0;collapsible=1;marginBottom=0;whiteSpace=wrap;html=1;" vertex="1" parent="1">
          <mxGeometry x="50" y="830" width="190" height="170" as="geometry" />
        </mxCell>
        <mxCell id="8Y4MFwl64yA6Q5XW1h5S-89" value="&lt;div&gt;&lt;div&gt;&amp;nbsp;- docID: String&lt;/div&gt;&lt;div&gt;&amp;nbsp;- traineeID: String&lt;/div&gt;&lt;div&gt;&amp;nbsp;- submissionDate: Date&lt;/div&gt;&lt;div&gt;&amp;nbsp;- status: String&lt;/div&gt;&lt;div&gt;&amp;nbsp;- deadline: Date&lt;/div&gt;&lt;/div&gt;" style="text;strokeColor=none;fillColor=none;align=left;verticalAlign=top;spacingLeft=4;spacingRight=4;overflow=hidden;rotatable=0;points=[[0,0.5],[1,0.5]];portConstraint=eastwest;whiteSpace=wrap;html=1;" vertex="1" parent="8Y4MFwl64yA6Q5XW1h5S-88">
          <mxGeometry y="26" width="190" height="84" as="geometry" />
        </mxCell>
        <mxCell id="8Y4MFwl64yA6Q5XW1h5S-90" value="" style="line;strokeWidth=1;fillColor=none;align=left;verticalAlign=middle;spacingTop=-1;spacingLeft=3;spacingRight=3;rotatable=0;labelPosition=right;points=[];portConstraint=eastwest;strokeColor=inherit;" vertex="1" parent="8Y4MFwl64yA6Q5XW1h5S-88">
          <mxGeometry y="110" width="190" height="8" as="geometry" />
        </mxCell>
        <mxCell id="8Y4MFwl64yA6Q5XW1h5S-91" value="&lt;div&gt;&amp;nbsp;&lt;span style=&quot;background-color: initial;&quot;&gt;+&amp;nbsp;&lt;/span&gt;uploadMedicalDocument(&lt;span style=&quot;background-color: initial;&quot;&gt;)&lt;/span&gt;&lt;/div&gt;&lt;div&gt;&lt;span style=&quot;background-color: initial;&quot;&gt;&amp;nbsp;+ reviewMedicalDocument()&lt;/span&gt;&lt;/div&gt;" style="text;strokeColor=none;fillColor=none;align=left;verticalAlign=top;spacingLeft=4;spacingRight=4;overflow=hidden;rotatable=0;points=[[0,0.5],[1,0.5]];portConstraint=eastwest;whiteSpace=wrap;html=1;" vertex="1" parent="8Y4MFwl64yA6Q5XW1h5S-88">
          <mxGeometry y="118" width="190" height="52" as="geometry" />
        </mxCell>
        <mxCell id="8Y4MFwl64yA6Q5XW1h5S-92" value="" style="endArrow=none;html=1;rounded=0;exitX=0.719;exitY=-0.015;exitDx=0;exitDy=0;exitPerimeter=0;" edge="1" parent="1">
          <mxGeometry width="50" height="50" relative="1" as="geometry">
            <mxPoint x="170.99" y="828.0799999999999" as="sourcePoint" />
            <mxPoint x="268" y="340" as="targetPoint" />
            <Array as="points">
              <mxPoint x="170" y="730" />
              <mxPoint x="270" y="730" />
              <mxPoint x="270" y="630" />
            </Array>
          </mxGeometry>
        </mxCell>
        <mxCell id="8Y4MFwl64yA6Q5XW1h5S-94" value="approve/reject" style="text;html=1;align=center;verticalAlign=middle;resizable=0;points=[];autosize=1;strokeColor=none;fillColor=none;" vertex="1" parent="1">
          <mxGeometry x="210" y="390" width="100" height="30" as="geometry" />
        </mxCell>
        <mxCell id="8Y4MFwl64yA6Q5XW1h5S-95" value="" style="endArrow=none;html=1;rounded=0;exitX=0.868;exitY=-0.011;exitDx=0;exitDy=0;exitPerimeter=0;" edge="1" parent="1">
          <mxGeometry width="50" height="50" relative="1" as="geometry">
            <mxPoint x="482.28" y="711.482" as="sourcePoint" />
            <mxPoint x="609" y="630" as="targetPoint" />
            <Array as="points">
              <mxPoint x="482" y="630" />
            </Array>
          </mxGeometry>
        </mxCell>
        <mxCell id="8Y4MFwl64yA6Q5XW1h5S-96" value="review" style="text;html=1;align=center;verticalAlign=middle;resizable=0;points=[];autosize=1;strokeColor=none;fillColor=none;" vertex="1" parent="1">
          <mxGeometry x="505" y="610" width="60" height="30" as="geometry" />
        </mxCell>
        <mxCell id="8Y4MFwl64yA6Q5XW1h5S-97" value="Training Log" style="swimlane;fontStyle=1;align=center;verticalAlign=top;childLayout=stackLayout;horizontal=1;startSize=26;horizontalStack=0;resizeParent=1;resizeParentMax=0;resizeLast=0;collapsible=1;marginBottom=0;whiteSpace=wrap;html=1;" vertex="1" parent="1">
          <mxGeometry x="300" y="710" width="210" height="170" as="geometry" />
        </mxCell>
        <mxCell id="8Y4MFwl64yA6Q5XW1h5S-98" value="&lt;div&gt;- logID: String&lt;/div&gt;&lt;div&gt;- traineeID: String&lt;/div&gt;&lt;div&gt;- content: String&lt;/div&gt;&lt;div&gt;- submissionDate: Date&lt;/div&gt;&lt;div&gt;- deadline: Date&lt;/div&gt;" style="text;strokeColor=none;fillColor=none;align=left;verticalAlign=top;spacingLeft=4;spacingRight=4;overflow=hidden;rotatable=0;points=[[0,0.5],[1,0.5]];portConstraint=eastwest;whiteSpace=wrap;html=1;" vertex="1" parent="8Y4MFwl64yA6Q5XW1h5S-97">
          <mxGeometry y="26" width="210" height="84" as="geometry" />
        </mxCell>
        <mxCell id="8Y4MFwl64yA6Q5XW1h5S-99" value="" style="line;strokeWidth=1;fillColor=none;align=left;verticalAlign=middle;spacingTop=-1;spacingLeft=3;spacingRight=3;rotatable=0;labelPosition=right;points=[];portConstraint=eastwest;strokeColor=inherit;" vertex="1" parent="8Y4MFwl64yA6Q5XW1h5S-97">
          <mxGeometry y="110" width="210" height="8" as="geometry" />
        </mxCell>
        <mxCell id="8Y4MFwl64yA6Q5XW1h5S-100" value="&lt;div&gt;&amp;nbsp;+ submitTrainingLog()&lt;/div&gt;&lt;div&gt;&lt;span style=&quot;background-color: initial;&quot;&gt;&amp;nbsp;+&amp;nbsp;&lt;/span&gt;reviewLogSubmission&lt;span style=&quot;background-color: initial;&quot;&gt;()&lt;/span&gt;&lt;/div&gt;" style="text;strokeColor=none;fillColor=none;align=left;verticalAlign=top;spacingLeft=4;spacingRight=4;overflow=hidden;rotatable=0;points=[[0,0.5],[1,0.5]];portConstraint=eastwest;whiteSpace=wrap;html=1;" vertex="1" parent="8Y4MFwl64yA6Q5XW1h5S-97">
          <mxGeometry y="118" width="210" height="52" as="geometry" />
        </mxCell>
        <mxCell id="8Y4MFwl64yA6Q5XW1h5S-101" value="Task" style="swimlane;fontStyle=1;align=center;verticalAlign=top;childLayout=stackLayout;horizontal=1;startSize=26;horizontalStack=0;resizeParent=1;resizeParentMax=0;resizeLast=0;collapsible=1;marginBottom=0;whiteSpace=wrap;html=1;" vertex="1" parent="1">
          <mxGeometry x="550" y="750" width="210" height="170" as="geometry" />
        </mxCell>
        <mxCell id="8Y4MFwl64yA6Q5XW1h5S-102" value="&lt;div&gt;&amp;nbsp;- taskID: String&lt;/div&gt;&lt;div&gt;&amp;nbsp;- title: String&lt;/div&gt;&lt;div&gt;&amp;nbsp;- description: String&lt;/div&gt;&lt;div&gt;&amp;nbsp;- deadline: Date&lt;/div&gt;" style="text;strokeColor=none;fillColor=none;align=left;verticalAlign=top;spacingLeft=4;spacingRight=4;overflow=hidden;rotatable=0;points=[[0,0.5],[1,0.5]];portConstraint=eastwest;whiteSpace=wrap;html=1;" vertex="1" parent="8Y4MFwl64yA6Q5XW1h5S-101">
          <mxGeometry y="26" width="210" height="74" as="geometry" />
        </mxCell>
        <mxCell id="8Y4MFwl64yA6Q5XW1h5S-103" value="" style="line;strokeWidth=1;fillColor=none;align=left;verticalAlign=middle;spacingTop=-1;spacingLeft=3;spacingRight=3;rotatable=0;labelPosition=right;points=[];portConstraint=eastwest;strokeColor=inherit;" vertex="1" parent="8Y4MFwl64yA6Q5XW1h5S-101">
          <mxGeometry y="100" width="210" height="8" as="geometry" />
        </mxCell>
        <mxCell id="8Y4MFwl64yA6Q5XW1h5S-104" value="&lt;div&gt;&lt;span style=&quot;background-color: initial;&quot;&gt;&amp;nbsp;+ assignTask()&lt;/span&gt;&lt;/div&gt;&lt;div&gt;&lt;span style=&quot;background-color: initial;&quot;&gt;&amp;nbsp;+ viewTask()&lt;/span&gt;&lt;/div&gt;&lt;div&gt;&amp;nbsp;&lt;span style=&quot;background-color: initial;&quot;&gt;+ trackTaskProgress()&lt;/span&gt;&lt;/div&gt;&lt;div&gt;&amp;nbsp;&lt;/div&gt;" style="text;strokeColor=none;fillColor=none;align=left;verticalAlign=top;spacingLeft=4;spacingRight=4;overflow=hidden;rotatable=0;points=[[0,0.5],[1,0.5]];portConstraint=eastwest;whiteSpace=wrap;html=1;" vertex="1" parent="8Y4MFwl64yA6Q5XW1h5S-101">
          <mxGeometry y="108" width="210" height="62" as="geometry" />
        </mxCell>
        <mxCell id="8Y4MFwl64yA6Q5XW1h5S-105" value="*" style="text;html=1;align=center;verticalAlign=middle;resizable=0;points=[];autosize=1;strokeColor=none;fillColor=none;" vertex="1" parent="1">
          <mxGeometry x="505" y="98" width="30" height="30" as="geometry" />
        </mxCell>
        <mxCell id="8Y4MFwl64yA6Q5XW1h5S-106" value="1" style="text;html=1;align=center;verticalAlign=middle;resizable=0;points=[];autosize=1;strokeColor=none;fillColor=none;" vertex="1" parent="1">
          <mxGeometry x="365" y="128" width="30" height="30" as="geometry" />
        </mxCell>
        <mxCell id="8Y4MFwl64yA6Q5XW1h5S-107" value="1" style="text;html=1;align=center;verticalAlign=middle;resizable=0;points=[];autosize=1;strokeColor=none;fillColor=none;" vertex="1" parent="1">
          <mxGeometry x="195" y="238" width="30" height="30" as="geometry" />
        </mxCell>
        <mxCell id="8Y4MFwl64yA6Q5XW1h5S-108" value="*" style="text;html=1;align=center;verticalAlign=middle;resizable=0;points=[];autosize=1;strokeColor=none;fillColor=none;" vertex="1" parent="1">
          <mxGeometry x="105" y="408" width="30" height="30" as="geometry" />
        </mxCell>
        <mxCell id="8Y4MFwl64yA6Q5XW1h5S-109" value="1" style="text;html=1;align=center;verticalAlign=middle;resizable=0;points=[];autosize=1;strokeColor=none;fillColor=none;" vertex="1" parent="1">
          <mxGeometry x="375" y="338" width="30" height="30" as="geometry" />
        </mxCell>
        <mxCell id="8Y4MFwl64yA6Q5XW1h5S-110" value="*" style="text;html=1;align=center;verticalAlign=middle;resizable=0;points=[];autosize=1;strokeColor=none;fillColor=none;" vertex="1" parent="1">
          <mxGeometry x="715" y="398" width="30" height="30" as="geometry" />
        </mxCell>
        <mxCell id="8Y4MFwl64yA6Q5XW1h5S-111" value="1" style="text;html=1;align=center;verticalAlign=middle;resizable=0;points=[];autosize=1;strokeColor=none;fillColor=none;" vertex="1" parent="1">
          <mxGeometry x="245" y="338" width="30" height="30" as="geometry" />
        </mxCell>
        <mxCell id="8Y4MFwl64yA6Q5XW1h5S-112" value="*" style="text;html=1;align=center;verticalAlign=middle;resizable=0;points=[];autosize=1;strokeColor=none;fillColor=none;" vertex="1" parent="1">
          <mxGeometry x="145" y="798" width="30" height="30" as="geometry" />
        </mxCell>
        <mxCell id="8Y4MFwl64yA6Q5XW1h5S-113" value="*" style="text;html=1;align=center;verticalAlign=middle;resizable=0;points=[];autosize=1;strokeColor=none;fillColor=none;" vertex="1" parent="1">
          <mxGeometry x="85" y="808" width="30" height="30" as="geometry" />
        </mxCell>
        <mxCell id="8Y4MFwl64yA6Q5XW1h5S-115" value="1" style="text;html=1;align=center;verticalAlign=middle;resizable=0;points=[];autosize=1;strokeColor=none;fillColor=none;" vertex="1" parent="1">
          <mxGeometry x="95" y="680" width="30" height="30" as="geometry" />
        </mxCell>
        <mxCell id="8Y4MFwl64yA6Q5XW1h5S-116" value="*" style="text;html=1;align=center;verticalAlign=middle;resizable=0;points=[];autosize=1;strokeColor=none;fillColor=none;" vertex="1" parent="1">
          <mxGeometry x="565" y="248" width="30" height="30" as="geometry" />
        </mxCell>
        <mxCell id="8Y4MFwl64yA6Q5XW1h5S-117" value="1" style="text;html=1;align=center;verticalAlign=middle;resizable=0;points=[];autosize=1;strokeColor=none;fillColor=none;" vertex="1" parent="1">
          <mxGeometry x="435" y="248" width="30" height="30" as="geometry" />
        </mxCell>
        <mxCell id="8Y4MFwl64yA6Q5XW1h5S-118" value="*" style="text;html=1;align=center;verticalAlign=middle;resizable=0;points=[];autosize=1;strokeColor=none;fillColor=none;" vertex="1" parent="1">
          <mxGeometry x="275" y="758" width="30" height="30" as="geometry" />
        </mxCell>
        <mxCell id="8Y4MFwl64yA6Q5XW1h5S-119" value="1" style="text;html=1;align=center;verticalAlign=middle;resizable=0;points=[];autosize=1;strokeColor=none;fillColor=none;" vertex="1" parent="1">
          <mxGeometry x="165" y="678" width="30" height="30" as="geometry" />
        </mxCell>
        <mxCell id="8Y4MFwl64yA6Q5XW1h5S-120" value="*" style="text;html=1;align=center;verticalAlign=middle;resizable=0;points=[];autosize=1;strokeColor=none;fillColor=none;" vertex="1" parent="1">
          <mxGeometry x="565" y="718" width="30" height="30" as="geometry" />
        </mxCell>
        <mxCell id="8Y4MFwl64yA6Q5XW1h5S-121" value="1" style="text;html=1;align=center;verticalAlign=middle;resizable=0;points=[];autosize=1;strokeColor=none;fillColor=none;" vertex="1" parent="1">
          <mxGeometry x="225" y="628" width="30" height="30" as="geometry" />
        </mxCell>
        <mxCell id="8Y4MFwl64yA6Q5XW1h5S-122" value="1" style="text;html=1;align=center;verticalAlign=middle;resizable=0;points=[];autosize=1;strokeColor=none;fillColor=none;" vertex="1" parent="1">
          <mxGeometry x="585" y="608" width="30" height="30" as="geometry" />
        </mxCell>
        <mxCell id="8Y4MFwl64yA6Q5XW1h5S-123" value="*" style="text;html=1;align=center;verticalAlign=middle;resizable=0;points=[];autosize=1;strokeColor=none;fillColor=none;" vertex="1" parent="1">
          <mxGeometry x="475" y="688" width="30" height="30" as="geometry" />
        </mxCell>
        <mxCell id="8Y4MFwl64yA6Q5XW1h5S-124" value="*" style="text;html=1;align=center;verticalAlign=middle;resizable=0;points=[];autosize=1;strokeColor=none;fillColor=none;" vertex="1" parent="1">
          <mxGeometry x="695" y="718" width="30" height="30" as="geometry" />
        </mxCell>
        <mxCell id="8Y4MFwl64yA6Q5XW1h5S-125" value="1" style="text;html=1;align=center;verticalAlign=middle;resizable=0;points=[];autosize=1;strokeColor=none;fillColor=none;" vertex="1" parent="1">
          <mxGeometry x="695" y="648" width="30" height="30" as="geometry" />
        </mxCell>
        <mxCell id="8Y4MFwl64yA6Q5XW1h5S-127" value="*" style="text;html=1;align=center;verticalAlign=middle;resizable=0;points=[];autosize=1;strokeColor=none;fillColor=none;" vertex="1" parent="1">
          <mxGeometry x="475" y="528" width="30" height="30" as="geometry" />
        </mxCell>
        <mxCell id="8Y4MFwl64yA6Q5XW1h5S-128" value="1" style="text;html=1;align=center;verticalAlign=middle;resizable=0;points=[];autosize=1;strokeColor=none;fillColor=none;" vertex="1" parent="1">
          <mxGeometry x="585" y="525" width="30" height="30" as="geometry" />
        </mxCell>
      </root>
    </mxGraphModel>
  </diagram>
</mxfile>
